<svg xmlns="http://www.w3.org/2000/svg" xmlns:xlink="http://www.w3.org/1999/xlink" xml:space="preserve" version="1.1" style="shape-rendering:geometricPrecision; text-rendering:geometricPrecision; image-rendering:optimizeQuality; fill-rule:evenodd; clip-rule:evenodd" viewBox="655.78 631.86 6914.45 1736.4">
 <defs>
  <style type="text/css">
   <![CDATA[
    .fil0 {fill:none}
    .fil3 {fill:#0077FF}
    .fil1 {fill:#0A1759;fill-rule:nonzero}
    .fil2 {fill:url(#id2)}
   ]]>
  </style>
    <mask id="id0">
  <linearGradient id="id1" gradientUnits="userSpaceOnUse" x1="1762.255" y1="1763.758" x2="1149.739" y2="1599.636">
   <stop offset="0" style="stop-opacity:1; stop-color:white"/>
   <stop offset="1" style="stop-opacity:0; stop-color:white"/>
  </linearGradient>
     <rect style="fill:url(#id1)" x="1149.739" y="1056.014" width="889.479" height="1288.322"/>
    </mask>
  <linearGradient id="id2" gradientUnits="userSpaceOnUse" x1="669.398" y1="2206.607" x2="2064.164" y2="1401.336">
   <stop offset="0" style="stop-opacity:1; stop-color:#0077FF"/>
   <stop offset="1" style="stop-opacity:1; stop-color:#00ECBB"/>
  </linearGradient>
 </defs>
 <g id="Layer_x0020_1">
  <metadata id="CorelCorpID_0Corel-Layer"/>
  <rect class="fil0" width="8226" height="3000.115"/>
  <g id="_2161925070512">
   <path class="fil1" d="M2477.332 2099.18c0,10.25 2.563,12.813 11.532,12.813l171.698 0c10.25,0 12.813,-2.563 12.813,-12.813l0 -386.961 188.355 0 194.761 388.242c3.845,8.969 7.689,11.532 15.376,11.532l188.355 0c8.97,0 14.095,-6.406 8.97,-14.095l-213.982 -406.18c129.414,-33.315 225.513,-135.821 225.513,-288.299 0,-189.636 -130.695,-313.925 -316.487,-313.925l-369.022 0c-78.161,0 -117.882,41.003 -117.882,117.883l0 891.803zm196.043 -539.438l0 -313.925 266.516 0c97.381,0 153.759,67.91 153.759,157.602 0,90.974 -56.378,156.323 -158.884,156.323l-261.391 0zm897.973 426.681c-78.161,0 -111.476,-37.159 -111.476,-90.974 0,-65.348 43.565,-108.913 134.54,-108.913 108.912,0 179.385,57.66 179.385,129.414l0 70.473 -202.449 0zm266.515 125.57c62.786,0 103.788,-37.158 103.788,-99.944l0 -388.242c0,-161.447 -114.038,-252.421 -313.925,-252.421 -276.767,0 -324.175,187.074 -324.175,233.201 0,8.97 2.562,12.814 11.531,12.814l143.509 0c8.969,0 14.094,-3.844 15.376,-12.814 11.532,-64.065 58.941,-102.505 144.79,-102.505 108.912,0 153.759,52.534 153.759,131.976l0 102.507c0,0 -44.847,-67.911 -207.575,-67.911 -167.853,0 -274.204,90.974 -274.204,229.357 0,148.634 108.913,213.982 260.11,213.982l287.016 0zm353.41 -575.316l149.915 0c117.882,0 185.792,83.287 185.792,215.263 0,129.414 -58.941,216.544 -166.572,216.544 -105.069,0 -169.135,-70.473 -169.135,-206.293l0 -225.514zm-171.698 818.768c0,10.251 2.563,12.813 11.532,12.813l149.915 0c8.97,0 12.813,-2.562 12.813,-12.813l0 -319.05c0,0 51.253,84.567 194.762,84.567 179.386,0 312.643,-152.478 312.643,-374.147 0,-221.67 -147.352,-363.897 -353.646,-363.897l-224.232 0c-62.785,0 -103.787,37.159 -103.787,99.944l0 872.583zm737.807 -256.265c0,10.25 2.562,12.813 11.532,12.813l156.321 0c8.97,0 12.814,-2.563 12.814,-12.813l0 -703.449c0,-8.968 -3.844,-12.813 -12.814,-12.813l-156.321 0c-8.97,0 -11.532,3.845 -11.532,12.813l0 703.449zm89.693 -996.872c-56.379,0 -103.788,39.721 -103.788,98.662 0,60.222 47.409,96.099 103.788,96.099 58.941,0 105.068,-35.877 105.068,-96.099 0,-58.941 -46.127,-98.662 -105.068,-98.662zm507.167 855.926c-117.881,0 -187.073,-83.286 -187.073,-215.263 0,-129.414 58.941,-216.544 167.854,-216.544 103.787,0 170.417,70.473 170.417,207.575l0 224.232 -151.198 0zm217.826 153.759c64.066,0 103.788,-37.158 103.788,-99.944l0 -909.741c0,-10.251 -2.563,-12.814 -11.532,-12.814l-149.916 0c-8.968,0 -12.813,2.563 -12.813,12.814l0 356.208c0,0 -51.253,-84.567 -196.043,-84.567 -178.104,0 -310.08,152.478 -310.08,374.147 0,221.67 146.071,363.897 352.364,363.897l224.232 0zm445.665 -125.57c-78.161,0 -111.476,-37.159 -111.476,-90.974 0,-65.348 43.565,-108.913 134.54,-108.913 108.912,0 179.385,57.66 179.385,129.414l0 70.473 -202.449 0zm266.515 125.57c62.786,0 103.788,-37.158 103.788,-99.944l0 -388.242c0,-161.447 -114.038,-252.421 -313.925,-252.421 -276.766,0 -324.175,187.074 -324.175,233.201 0,8.97 2.562,12.814 11.531,12.814l143.509 0c8.969,0 14.094,-3.844 15.376,-12.814 11.532,-64.065 58.941,-102.505 144.79,-102.505 108.913,0 153.759,52.534 153.759,131.976l0 102.507c0,0 -44.846,-67.911 -207.575,-67.911 -167.853,0 -274.204,90.974 -274.204,229.357 0,148.634 108.913,213.982 260.11,213.982l287.016 0zm221.433 -266.516c0,169.135 87.13,266.516 257.546,266.516l105.069 0c8.97,0 11.532,-2.563 11.532,-12.813l0 -130.696c0,-10.25 -2.562,-12.813 -11.532,-12.813l-88.411 0c-52.535,0 -96.1,-33.315 -96.1,-98.662l0 -319.05 184.511 0c8.97,0 11.532,-2.563 11.532,-12.814l0 -129.414c0,-10.25 -2.562,-12.813 -11.532,-12.813l-184.511 0 0 -193.48c0,-8.97 -2.562,-11.532 -12.813,-11.532l-152.478 0c-8.969,0 -12.813,2.562 -12.813,11.532l0 193.48 -98.662 0c-8.969,0 -11.532,2.563 -11.532,12.813l0 129.414c0,10.251 2.563,12.814 11.532,12.814l98.662 0 0 307.518zm694.242 140.946c-78.161,0 -111.475,-37.159 -111.475,-90.974 0,-65.348 43.564,-108.913 134.539,-108.913 108.913,0 179.386,57.66 179.386,129.414l0 70.473 -202.45 0zm266.516 125.57c62.785,0 103.787,-37.158 103.787,-99.944l0 -388.242c0,-161.447 -114.038,-252.421 -313.925,-252.421 -276.766,0 -324.175,187.074 -324.175,233.201 0,8.97 2.562,12.814 11.532,12.814l143.508 0c8.969,0 14.095,-3.844 15.376,-12.814 11.532,-64.065 58.941,-102.505 144.79,-102.505 108.913,0 153.759,52.534 153.759,131.976l0 102.507c0,0 -44.846,-67.911 -207.574,-67.911 -167.854,0 -274.204,90.974 -274.204,229.357 0,148.634 108.912,213.982 260.109,213.982l287.017 0z"/>
   <path class="fil2" d="M1096.433 711.369c284.321,-164.152 651.26,-65.834 815.415,218.491l0.004 0.013c164.159,284.325 65.836,651.261 -218.488,815.413l-0.006 0.004 -397.956 -689.295 -639.624 369.306 0 -459.518 440.655 -254.414zm252.282 1232.902l-692.937 400.066 0 -459.519 493.963 -285.189 198.974 344.642z"/>
   <polygon class="fil3" style="mask:url(#id0)" points="1579.695,2344.336 1149.739,1599.636 1295.402,1056.014 2039.218,2344.336 "/>
  </g>
 </g>
</svg>